<?xml version="1.0" encoding="UTF-8"?>
<svg width="72px" height="54px" viewBox="0 0 72 54" version="1.1" xmlns="http://www.w3.org/2000/svg" xmlns:xlink="http://www.w3.org/1999/xlink">
    <!-- Generator: Sketch 52.5 (67469) - http://www.bohemiancoding.com/sketch -->
    <title>Group 3</title>
    <desc>Created with Sketch.</desc>
    <g id="4.0UI-主界面" stroke="none" stroke-width="1" fill="none" fill-rule="evenodd">
        <g id="占位图" transform="translate(-1177.000000, -1034.000000)">
            <g id="Group-3" transform="translate(1177.000000, 1034.000000)">
                <rect id="Rectangle-79" fill="#130F30" fill-rule="nonzero" x="0" y="0" width="72" height="54"></rect>
                <g id="Group-2" transform="translate(16.000000, 7.000000)" fill="#7280A6" opacity="0.66">
                    <path d="M20.0003366,0 C11.9112224,0 4.61866091,4.87278944 1.52309507,12.3461924 C-1.57268892,19.8195954 0.138495017,28.4217508 5.85834891,34.1415954 C11.5782028,39.8614399 20.1805904,41.5726211 27.6537874,38.4770603 C35.1272026,35.3814995 40,28.0890045 40,19.999849 C39.9889284,8.95879005 31.0411953,0.0112897051 20.0003366,0 Z M20.0000243,36.0001421 C11.1633497,36.0001421 4,28.8366097 4,20.0001439 C4,11.1634838 11.1633497,4 20.0000243,4 C28.8366989,4 36,11.1634838 36,20.0001439 C35.9901395,28.8324324 28.8325215,35.9900873 20.0000243,36.0001421 Z" id="Fill-1"></path>
                    <path d="M23,15.1037204 L23,26.1958783 C23,28.4050173 21.209139,30.1958783 19,30.1958783 C16.790861,30.1958783 15,28.4050173 15,26.1958783 C15,23.9867393 16.790861,22.1958783 19,22.1958783 C19.3452996,22.1958783 19.6803801,22.2396313 20,22.3218958 L20,13.1958783 L20.0586332,13.1958783 L20,13.1573463 C21.5066683,12.1900535 23.0133365,11.2227606 24.5200048,10.2554678 C25.2685188,9.77491587 26.2648737,9.99214212 26.7454256,10.7406562 C26.7958656,10.8192223 26.8393785,10.9020255 26.8754726,10.9881303 L26.8984705,11.0429932 C27.303519,12.0092617 26.8942015,13.1243501 25.9601992,13.5990909 L23,15.1037204 Z" id="Combined-Shape"></path>
                </g>
            </g>
        </g>
    </g>
</svg>