<?xml version="1.0" encoding="UTF-8"?>
<svg width="72px" height="54px" viewBox="0 0 72 54" version="1.1" xmlns="http://www.w3.org/2000/svg" xmlns:xlink="http://www.w3.org/1999/xlink">
    <!-- Generator: Sketch 52.5 (67469) - http://www.bohemiancoding.com/sketch -->
    <title>Group</title>
    <desc>Created with Sketch.</desc>
    <g id="4.0UI-主界面" stroke="none" stroke-width="1" fill="none" fill-rule="evenodd">
        <g id="占位图" transform="translate(-1177.000000, -1108.000000)" fill-rule="nonzero">
            <g id="Group" transform="translate(1177.000000, 1108.000000)">
                <rect id="Rectangle-79" fill="#130F30" x="0" y="0" width="72" height="54"></rect>
                <path d="M16,27 C16,15.954305 24.954305,7 36,7 C47.045695,7 56,15.954305 56,27 C56,38.045695 47.045695,47 36,47 L18,47 C16.8954305,47 16,46.1045695 16,45 L16,27 Z M36,43 C44.836556,43 52,35.836556 52,27 C52,18.163444 44.836556,11 36,11 C27.163444,11 20,18.163444 20,27 C20,35.836556 27.163444,43 36,43 Z M24.6930988,40.90844 C23.4031109,41.3575293 22.2503902,42.0317946 21.2349365,42.9312359 C20.2194829,43.8306772 19.6323618,44.6102263 19.4735734,45.2698831 L22.9507608,45.2698831 C23.0441493,45.1066024 23.4542687,44.7559107 24.1811193,44.2178081 C24.9079698,43.6797056 25.8475967,43.2508482 27,42.9312359 L24.6930988,40.90844 Z M40,24 C37.790861,24 36,22.209139 36,20 C36,17.790861 37.790861,16 40,16 C42.209139,16 44,17.790861 44,20 C44,22.209139 42.209139,24 40,24 Z M45,33 C42.790861,33 41,31.209139 41,29 C41,26.790861 42.790861,25 45,25 C47.209139,25 49,26.790861 49,29 C49,31.209139 47.209139,33 45,33 Z M37,39 C34.790861,39 33,37.209139 33,35 C33,32.790861 34.790861,31 37,31 C39.209139,31 41,32.790861 41,35 C41,37.209139 39.209139,39 37,39 Z M28,34 C25.790861,34 24,32.209139 24,30 C24,27.790861 25.790861,26 28,26 C30.209139,26 32,27.790861 32,30 C32,32.209139 30.209139,34 28,34 Z M36,29 C34.8954305,29 34,28.1045695 34,27 C34,25.8954305 34.8954305,25 36,25 C37.1045695,25 38,25.8954305 38,27 C38,28.1045695 37.1045695,29 36,29 Z M30,25 C27.790861,25 26,23.209139 26,21 C26,18.790861 27.790861,17 30,17 C32.209139,17 34,18.790861 34,21 C34,23.209139 32.209139,25 30,25 Z" id="Combined-Shape" fill="#7280A6" opacity="0.66"></path>
            </g>
        </g>
    </g>
</svg>